<svg width="676" height="720" viewBox="0 0 676 720" fill="none" xmlns="http://www.w3.org/2000/svg">
<path d="M496 0C543.739 5.69281e-07 589.523 18.9642 623.279 52.7207C657.036 86.4772 676 132.261 676 180C676 227.739 657.036 273.523 623.279 307.279C589.523 341.036 543.739 360 496 360L496 270C519.87 270 542.761 260.518 559.64 243.64C576.518 226.761 586 203.869 586 180C586 156.13 576.518 133.239 559.64 116.36C542.761 99.4821 519.869 90 496 90L496 0Z" fill="#1F1F1F"/>
<path d="M361 22.5C361 10.0736 371.074 0 383.5 0H451V697.5C451 709.926 440.926 720 428.5 720H383.5C371.074 720 361 709.926 361 697.5V22.5Z" fill="#1F1F1F"/>
<rect width="90" height="720" rx="22.5" fill="#1F1F1F"/>
<rect width="180" height="90" rx="22.5" transform="matrix(-1 0 0 1 316 314.667)" fill="#1F1F1F"/>
</svg>
